<svg class="railroad-diagram" width="280" height="212" viewBox="0 0 280 212" xmlns="http://www.w3.org/2000/svg" xmlns:xlink="http://www.w3.org/1999/xlink">
<g transform="translate(.5 .5)">
<g>
<path d="M20 21v20m10 -20v20m-10 -10h20"></path>
</g>
<g>
<path d="M40 31h0"></path>
<path d="M116 31h0"></path>
<path d="M40 31h20"></path>
<g class="terminal ">
<path d="M60 31h4"></path>
<path d="M92 31h4"></path>
<rect x="64" y="20" width="28" height="22" rx="10" ry="10"></rect>
<text x="78" y="35">=</text>
</g>
<path d="M96 31h20"></path>
<path d="M40 31a10 10 0 0 1 10 10v10a10 10 0 0 0 10 10"></path>
<g class="terminal ">
<path d="M60 61h4"></path>
<path d="M92 61h4"></path>
<rect x="64" y="50" width="28" height="22" rx="10" ry="10"></rect>
<text x="78" y="65">&#60;</text>
</g>
<path d="M96 61a10 10 0 0 0 10 -10v-10a10 10 0 0 1 10 -10"></path>
<path d="M40 31a10 10 0 0 1 10 10v40a10 10 0 0 0 10 10"></path>
<g class="terminal ">
<path d="M60 91h4"></path>
<path d="M92 91h4"></path>
<rect x="64" y="80" width="28" height="22" rx="10" ry="10"></rect>
<text x="78" y="95">></text>
</g>
<path d="M96 91a10 10 0 0 0 10 -10v-40a10 10 0 0 1 10 -10"></path>
<path d="M40 31a10 10 0 0 1 10 10v70a10 10 0 0 0 10 10"></path>
<g class="terminal ">
<path d="M60 121h0"></path>
<path d="M96 121h0"></path>
<rect x="60" y="110" width="36" height="22" rx="10" ry="10"></rect>
<text x="78" y="125">>=</text>
</g>
<path d="M96 121a10 10 0 0 0 10 -10v-70a10 10 0 0 1 10 -10"></path>
<path d="M40 31a10 10 0 0 1 10 10v100a10 10 0 0 0 10 10"></path>
<g class="terminal ">
<path d="M60 151h0"></path>
<path d="M96 151h0"></path>
<rect x="60" y="140" width="36" height="22" rx="10" ry="10"></rect>
<text x="78" y="155">&#60;=</text>
</g>
<path d="M96 151a10 10 0 0 0 10 -10v-100a10 10 0 0 1 10 -10"></path>
<path d="M40 31a10 10 0 0 1 10 10v130a10 10 0 0 0 10 10"></path>
<g class="terminal ">
<path d="M60 181h0"></path>
<path d="M96 181h0"></path>
<rect x="60" y="170" width="36" height="22" rx="10" ry="10"></rect>
<text x="78" y="185">!=</text>
</g>
<path d="M96 181a10 10 0 0 0 10 -10v-130a10 10 0 0 1 10 -10"></path>
</g>
<g>
<path d="M116 31h0"></path>
<path d="M240 31h0"></path>
<path d="M116 31h20"></path>
<g class="terminal ">
<path d="M136 31h12"></path>
<path d="M208 31h12"></path>
<rect x="148" y="20" width="60" height="22" rx="10" ry="10"></rect>
<text x="178" y="35">&#60;int></text>
</g>
<path d="M220 31h20"></path>
<path d="M116 31a10 10 0 0 1 10 10v10a10 10 0 0 0 10 10"></path>
<g class="terminal ">
<path d="M136 61h0"></path>
<path d="M220 61h0"></path>
<rect x="136" y="50" width="84" height="22" rx="10" ry="10"></rect>
<text x="178" y="65">&#60;string></text>
</g>
<path d="M220 61a10 10 0 0 0 10 -10v-10a10 10 0 0 1 10 -10"></path>
</g>
<path d="M 240 31 h 20 m -10 -10 v 20 m 10 -20 v 20"></path>
</g>
<style>
	svg {
		background-color: hsl(30,20%,95%);
	}
	path {
		stroke-width: 3;
		stroke: black;
		fill: rgba(0,0,0,0);
	}
	text {
		font: bold 14px monospace;
		text-anchor: middle;
		white-space: pre;
	}
	text.diagram-text {
		font-size: 12px;
	}
	text.diagram-arrow {
		font-size: 16px;
	}
	text.label {
		text-anchor: start;
	}
	text.comment {
		font: italic 12px monospace;
	}
	g.non-terminal text {
		/&#42;font-style: italic;&#42;/
	}
	rect {
		stroke-width: 3;
		stroke: black;
		fill: hsl(120,100%,90%);
	}
	rect.group-box {
		stroke: gray;
		stroke-dasharray: 10 5;
		fill: none;
	}
	path.diagram-text {
		stroke-width: 3;
		stroke: black;
		fill: white;
		cursor: help;
	}
	g.diagram-text:hover path.diagram-text {
		fill: #eee;
	}</style>
</svg>
